<?xml version="1.0" encoding="UTF-8"?>
<svg xmlns="http://www.w3.org/2000/svg" xmlns:xlink="http://www.w3.org/1999/xlink" viewBox="0 0 240 240" width="240px" height="240px">
<g id="surface26429453">
<path style=" stroke:none;fill-rule:nonzero;fill:rgb(10.196079%,10.196079%,10.196079%);fill-opacity:1;" d="M 210 86.5 C 210 189 120 220 120 220 C 120 220 30 189 30 86.5 C 30 74 31 63.5 32 55 C 33.5 42.5 42 32.5 54 29.5 C 69.5 25 94 20 120 20 C 146 20 170.5 25 186.5 29.5 C 198.5 32.5 207 43 208.5 55 C 209 63.5 210 74.5 210 86.5 Z M 210 86.5 "/>
<path style=" stroke:none;fill-rule:nonzero;fill:rgb(100%,70.588237%,0%);fill-opacity:1;" d="M 120 35 C 144.5 35 167.5 40 182.5 44 C 188.5 45.5 192.5 50.5 193.5 57 C 194.5 66.5 195 76.5 195 86.5 C 195 164.5 137.5 196 120 203.5 C 102.5 195.5 45 164 45 86.5 C 45 76.5 45.5 66.5 46.5 57 C 47 50.5 51.5 45.5 57.5 44 C 72.5 40 95.5 35 120 35 M 120 20 C 94 20 69.5 25 53.5 29.5 C 42 32.5 33 43 32 55 C 31 63.5 30 74.5 30 86.5 C 30 189 120 220 120 220 C 120 220 210 189 210 86.5 C 210 74 209 63.5 208 55 C 206.5 42.5 198 32.5 186 29.5 C 170.5 25 146 20 120 20 Z M 120 20 "/>
<path style=" stroke:none;fill-rule:nonzero;fill:rgb(100%,70.588237%,0%);fill-opacity:1;" d="M 115 140 L 125 140 L 125 180 L 115 180 Z M 115 140 "/>
<path style=" stroke:none;fill-rule:nonzero;fill:rgb(100%,70.588237%,0%);fill-opacity:1;" d="M 120 50 C 120 50 90 75 90 115 C 90 141 106.5 157.5 115 165 L 120 150 L 125 165 C 133.5 157.5 150 141 150 115 C 150 75 120 50 120 50 Z M 120 50 "/>
<path style=" stroke:none;fill-rule:nonzero;fill:rgb(100%,70.588237%,0%);fill-opacity:1;" d="M 120 50 C 120 50 90 75 90 115 C 90 141 106.5 157.5 115 165 L 120 150 Z M 120 50 "/>
</g>
</svg>
