<?xml version="1.0" encoding="UTF-8"?>
<svg xmlns="http://www.w3.org/2000/svg" xmlns:xlink="http://www.w3.org/1999/xlink" viewBox="0 0 240 240" width="240px" height="240px">
<g id="surface26364752">
<path style=" stroke:none;fill-rule:nonzero;fill:rgb(100%,70.588237%,0%);fill-opacity:1;" d="M 115 20 C 81.914062 20 55 56.351562 55 101.023438 C 55 125.195312 62.910156 146.871094 75.390625 161.703125 C 75.148438 162.769531 75 163.863281 75 165 C 75 173.285156 81.714844 180 90 180 C 98.285156 180 105 173.285156 105 165 C 105 156.714844 98.285156 150 90 150 C 88.425781 150 86.941406 150.308594 85.515625 150.761719 C 76.03125 138.65625 70 120.875 70 101.023438 C 70 64.621094 90.183594 35 115 35 C 134.183594 35 150.554688 52.734375 157.019531 77.589844 C 162.628906 79.320312 168.203125 81.5 173.671875 84.128906 C 167.894531 47.539062 143.796875 20 115 20 Z M 115 20 "/>
<path style=" stroke:none;fill-rule:nonzero;fill:rgb(100%,70.588237%,0%);fill-opacity:1;" d="M 177.535156 100.421875 C 157.800781 88.460938 135.664062 83.210938 116.625 85.625 C 113.875 82.21875 109.714844 80 105 80 C 96.714844 80 90 86.714844 90 95 C 90 103.285156 96.714844 110 105 110 C 111.359375 110 116.765625 106.023438 118.945312 100.441406 C 134.535156 98.546875 153.003906 103.09375 169.761719 113.253906 C 201.773438 132.660156 218.109375 166.101562 206.171875 187.808594 C 202.035156 195.328125 194.738281 200.671875 185.078125 203.261719 C 173.648438 206.316406 160.046875 205.230469 146.445312 200.621094 C 142.25 204.480469 137.699219 208.109375 132.820312 211.460938 C 145.578125 217.046875 158.800781 219.980469 171.164062 219.980469 C 177.363281 219.980469 183.355469 219.246094 188.960938 217.746094 C 202.664062 214.078125 213.164062 206.226562 219.316406 195.035156 C 235.078125 166.378906 216.335938 123.933594 177.535156 100.421875 Z M 177.535156 100.421875 "/>
<path style=" stroke:none;fill-rule:nonzero;fill:rgb(100%,70.588237%,0%);fill-opacity:1;" d="M 175 144.960938 C 175 136.699219 168.285156 130 160 130 C 151.714844 130 145 136.699219 145 144.960938 C 145 148.304688 146.140625 151.363281 148 153.855469 C 141.605469 167.863281 129.28125 181.691406 112.691406 191.746094 C 93.363281 203.464844 71.765625 207.753906 54.914062 203.253906 C 45.253906 200.664062 37.960938 195.324219 33.824219 187.804688 C 25.316406 172.335938 31.21875 150.925781 46.875 132.863281 C 45.261719 127.144531 44.066406 121.164062 43.34375 114.988281 C 17.996094 138.976562 7.800781 171.605469 20.683594 195.035156 C 26.835938 206.226562 37.335938 214.078125 51.039062 217.746094 C 56.644531 219.246094 62.628906 219.980469 68.835938 219.980469 C 85.566406 219.980469 103.871094 214.640625 120.464844 204.578125 C 139.644531 192.953125 153.878906 176.695312 161.511719 159.769531 C 169.074219 159.003906 175 152.703125 175 144.960938 Z M 175 144.960938 "/>
</g>
</svg>
