<?xml version="1.0" encoding="UTF-8"?>
<svg xmlns="http://www.w3.org/2000/svg" xmlns:xlink="http://www.w3.org/1999/xlink" viewBox="0 0 240 240" width="240px" height="240px">
<g id="surface26379776">
<path style=" stroke:none;fill-rule:nonzero;fill:rgb(100%,70.588237%,0%);fill-opacity:1;" d="M 210 185 C 210 198.808594 198.808594 210 185 210 L 55 210 C 41.195312 210 30 198.808594 30 185 L 30 55 C 30 41.191406 41.195312 30 55 30 L 185 30 C 198.808594 30 210 41.191406 210 55 Z M 210 185 "/>
<path style=" stroke:none;fill-rule:nonzero;fill:rgb(10.196079%,10.196079%,10.196079%);fill-opacity:1;" d="M 165.148438 128 C 161.898438 123.5 157.199219 120.398438 151.148438 118.75 C 151.148438 118.75 156.25 116.898438 160.851562 110 C 163.601562 105.601562 165 100.300781 165 94.101562 C 165 83.351562 161.101562 75.101562 153.300781 69.449219 C 145.5 63.800781 136.699219 60 121.75 60 L 75 60 L 75 180 L 127.148438 180 C 141.300781 179.898438 151.949219 176.851562 159.199219 171 C 166.398438 165.050781 170 156.25 170 144.5 C 170 138 168.398438 132.5 165.148438 128 Z M 105 80 C 105 80 125.851562 80 126.25 80 C 133.851562 80 140 86.148438 140 93.75 C 140 101.351562 133.851562 107.5 126.25 107.5 C 125.851562 107.5 105 107.5 105 107.5 Z M 130 160 L 105 160 L 105 130 L 130 130 C 138.300781 130 145 136.699219 145 145 C 145 153.300781 138.300781 160 130 160 Z M 130 160 "/>
</g>
</svg>
