<?xml version="1.0" encoding="UTF-8"?>
<svg xmlns="http://www.w3.org/2000/svg" xmlns:xlink="http://www.w3.org/1999/xlink" viewBox="0 0 128 128" width="128px" height="128px">
<g id="surface26360403">
<path style=" stroke:none;fill-rule:nonzero;fill:rgb(100%,70.588237%,0%);fill-opacity:1;" d="M 64 8.1875 C 61.894531 8.1875 59.792969 8.738281 57.921875 9.84375 L 21.921875 31.03125 C 18.265625 33.175781 16 37.144531 16 41.375 L 16 88.046875 C 16 92.4375 18.394531 96.472656 22.25 98.578125 L 34.046875 105.015625 C 35.863281 106.007812 37.828125 106.484375 39.796875 106.484375 C 41.910156 106.484375 43.996094 105.917969 45.90625 104.796875 C 49.585938 102.613281 51.78125 98.757812 51.78125 94.46875 L 51.78125 43.71875 L 43.78125 43.71875 L 43.78125 94.46875 C 43.78125 96.523438 42.421875 97.5625 41.828125 97.90625 C 41.242188 98.25 39.675781 98.96875 37.875 97.984375 L 26.09375 91.5625 C 24.804688 90.859375 24 89.511719 24 88.046875 L 24 41.375 C 24 39.96875 24.753906 38.640625 25.96875 37.921875 L 61.96875 16.734375 C 63.214844 16 64.785156 16.007812 66.03125 16.734375 L 102.03125 37.921875 C 103.238281 38.640625 104 39.96875 104 41.375 L 104 88.078125 C 104 89.519531 103.203125 90.875 101.921875 91.59375 L 65.921875 111.203125 C 64.722656 111.84375 63.277344 111.84375 62.078125 111.203125 L 55.046875 107.359375 C 53.6875 109.039062 52 110.488281 50 111.6875 C 49.359375 112.085938 48.71875 112.402344 48.078125 112.640625 L 58.234375 118.234375 C 60.074219 119.195312 62 119.6875 64 119.6875 C 66 119.6875 67.925781 119.195312 69.765625 118.234375 L 105.765625 98.5625 C 109.605469 96.484375 112 92.476562 112 88.078125 L 112 41.375 C 112 37.144531 109.742188 33.175781 106.09375 31.03125 L 70.09375 9.84375 C 68.21875 8.738281 66.105469 8.1875 64 8.1875 Z M 75.609375 42.546875 C 62.96875 42.546875 56.5625 46.953125 56.5625 55.640625 C 56.5625 65.480469 67.894531 66.945312 73.34375 67.640625 C 74.128906 67.746094 74.824219 67.832031 75.375 67.9375 L 77.765625 68.359375 C 86.085938 69.75 88 70.695312 88 73.375 C 88 74.671875 87.992188 78.59375 75.609375 78.59375 C 65.105469 78.59375 62.953125 75.476562 62.953125 70.796875 L 54.953125 70.796875 C 54.953125 78.011719 58.539062 86.59375 75.609375 86.59375 C 92.457031 86.59375 96 79.40625 96 73.375 C 96 63.3125 86.222656 61.660156 79.09375 60.453125 L 76.796875 60.0625 C 76.132812 59.941406 75.296875 59.832031 74.359375 59.71875 C 69.269531 59.0625 64.5625 58.121094 64.5625 55.65625 C 64.5625 53.871094 64.554688 50.554688 75.609375 50.546875 C 82.960938 50.546875 86.703125 52.964844 86.703125 57.734375 L 94.703125 57.734375 C 94.703125 50.398438 89.671875 42.546875 75.609375 42.546875 Z M 75.609375 42.546875 "/>
</g>
</svg>
